REM DIRINDEX 1\2\6,1\2\7,1\2\8,1\2\9,1\3\10,1\3\11,1\4\12,1\4\13,1\4\14,1\5\15,1\5\16,1\5\17
REM DIRNAME folder01,folder02,folder03,folder04,folder05,folder06,folder07,folder08,folder09,folder10,folder11,folder12,folder13,folder14,folder15,folder16,folder17
TITLE ""
FILE "1400_2_sec08_0785_0800.mp3" MP3
  TRACK 01 AUDIO
    TITLE "0:"
    INDEX 01 00:00:00
  TRACK 02 AUDIO
    TITLE "13:cjc029_3168"
    INDEX 01 00:00:19
  TRACK 03 AUDIO
    TITLE "0:"
    INDEX 01 00:01:34
  TRACK 04 AUDIO
    TITLE "14:cjc029_3169"
    INDEX 01 00:01:38
  TRACK 05 AUDIO
    TITLE "0:"
    INDEX 01 00:04:58
  TRACK 06 AUDIO
    TITLE "13:cjc029_3170"
    INDEX 01 00:05:38
  TRACK 07 AUDIO
    TITLE "0:"
    INDEX 01 00:06:61
  TRACK 08 AUDIO
    TITLE "14:cjc029_3171"
    INDEX 01 00:06:67
  TRACK 09 AUDIO
    TITLE "0:"
    INDEX 01 00:09:32
  TRACK 10 AUDIO
    TITLE "13:cjc029_3172"
    INDEX 01 00:10:14
  TRACK 11 AUDIO
    TITLE "0:"
    INDEX 01 00:11:33
  TRACK 12 AUDIO
    TITLE "14:cjc029_3173"
    INDEX 01 00:11:39
  TRACK 13 AUDIO
    TITLE "0:"
    INDEX 01 00:14:47
  TRACK 14 AUDIO
    TITLE "13:cjc029_3174"
    INDEX 01 00:15:30
  TRACK 15 AUDIO
    TITLE "0:"
    INDEX 01 00:16:55
  TRACK 16 AUDIO
    TITLE "14:cjc029_3175"
    INDEX 01 00:16:59
  TRACK 17 AUDIO
    TITLE "0:"
    INDEX 01 00:18:01
  TRACK 18 AUDIO
    TITLE "13:cjc029_3176"
    INDEX 01 00:18:62
  TRACK 19 AUDIO
    TITLE "0:"
    INDEX 01 00:19:60
  TRACK 20 AUDIO
    TITLE "14:cjc029_3177"
    INDEX 01 00:19:65
  TRACK 21 AUDIO
    TITLE "0:"
    INDEX 01 00:22:15
  TRACK 22 AUDIO
    TITLE "13:cjc029_3178"
    INDEX 01 00:22:72
  TRACK 23 AUDIO
    TITLE "0:"
    INDEX 01 00:24:43
  TRACK 24 AUDIO
    TITLE "14:cjc029_3179"
    INDEX 01 00:24:49
  TRACK 25 AUDIO
    TITLE "0:"
    INDEX 01 00:27:24
  TRACK 26 AUDIO
    TITLE "13:cjc029_3180"
    INDEX 01 00:28:04
  TRACK 27 AUDIO
    TITLE "0:"
    INDEX 01 00:29:25
  TRACK 28 AUDIO
    TITLE "14:cjc029_3181"
    INDEX 01 00:29:33
  TRACK 29 AUDIO
    TITLE "0:"
    INDEX 01 00:30:59
  TRACK 30 AUDIO
    TITLE "13:cjc029_3182"
    INDEX 01 00:31:41
  TRACK 31 AUDIO
    TITLE "0:"
    INDEX 01 00:32:50
  TRACK 32 AUDIO
    TITLE "14:cjc029_3183"
    INDEX 01 00:32:54
  TRACK 33 AUDIO
    TITLE "0:"
    INDEX 01 00:38:20
  TRACK 34 AUDIO
    TITLE "13:cjc029_3184"
    INDEX 01 00:39:03
  TRACK 35 AUDIO
    TITLE "0:"
    INDEX 01 00:40:17
  TRACK 36 AUDIO
    TITLE "14:cjc029_3185"
    INDEX 01 00:40:24
  TRACK 37 AUDIO
    TITLE "0:"
    INDEX 01 00:43:09
  TRACK 38 AUDIO
    TITLE "13:cjc029_3186"
    INDEX 01 00:43:64
  TRACK 39 AUDIO
    TITLE "0:"
    INDEX 01 00:45:18
  TRACK 40 AUDIO
    TITLE "14:cjc029_3187"
    INDEX 01 00:45:22
  TRACK 41 AUDIO
    TITLE "0:"
    INDEX 01 00:49:04
  TRACK 42 AUDIO
    TITLE "13:cjc029_3188"
    INDEX 01 00:49:61
  TRACK 43 AUDIO
    TITLE "0:"
    INDEX 01 00:51:05
  TRACK 44 AUDIO
    TITLE "14:cjc029_3189"
    INDEX 01 00:51:07
  TRACK 45 AUDIO
    TITLE "0:"
    INDEX 01 00:52:32
  TRACK 46 AUDIO
    TITLE "13:cjc029_3190"
    INDEX 01 00:53:15
  TRACK 47 AUDIO
    TITLE "0:"
    INDEX 01 00:54:21
  TRACK 48 AUDIO
    TITLE "14:cjc029_3191"
    INDEX 01 00:54:27
  TRACK 49 AUDIO
    TITLE "0:"
    INDEX 01 00:56:59
  TRACK 50 AUDIO
    TITLE "13:cjc029_3192"
    INDEX 01 00:57:41
  TRACK 51 AUDIO
    TITLE "0:"
    INDEX 01 00:58:50
  TRACK 52 AUDIO
    TITLE "14:cjc029_3193"
    INDEX 01 00:58:58
  TRACK 53 AUDIO
    TITLE "0:"
    INDEX 01 01:01:38
  TRACK 54 AUDIO
    TITLE "13:cjc029_3194"
    INDEX 01 01:02:20
  TRACK 55 AUDIO
    TITLE "0:"
    INDEX 01 01:03:49
  TRACK 56 AUDIO
    TITLE "14:cjc029_3195"
    INDEX 01 01:03:59
  TRACK 57 AUDIO
    TITLE "0:"
    INDEX 01 01:06:43
  TRACK 58 AUDIO
    TITLE "13:cjc029_3196"
    INDEX 01 01:07:25
  TRACK 59 AUDIO
    TITLE "0:"
    INDEX 01 01:08:48
  TRACK 60 AUDIO
    TITLE "14:cjc029_3197"
    INDEX 01 01:08:54
  TRACK 61 AUDIO
    TITLE "0:"
    INDEX 01 01:11:31
  TRACK 62 AUDIO
    TITLE "13:cjc029_3198"
    INDEX 01 01:12:11
  TRACK 63 AUDIO
    TITLE "0:"
    INDEX 01 01:13:08
  TRACK 64 AUDIO
    TITLE "14:cjc029_3199"
    INDEX 01 01:13:24
  TRACK 65 AUDIO
    TITLE "0:"
    INDEX 01 01:16:05
